HIERARCHY
ROOT Hips
{
	OFFSET 0.000000 0.000000 0.000000
	CHANNELS 6 Xposition Yposition Zposition Xrotation Yrotation Zrotation
	JOINT Spine
	{
		OFFSET 0.000000 0.041051 0.061576
		CHANNELS 3 Xrotation Yrotation Zrotation
		JOINT Spine1
		{
			OFFSET 0.000000 0.014257 0.080854
			CHANNELS 3 Xrotation Yrotation Zrotation
			JOINT Spine2
			{
				OFFSET 0.000000 0.007156 0.081789
				CHANNELS 3 Xrotation Yrotation Zrotation
				JOINT Spine3
				{
					OFFSET 0.000000 0.000000 0.082102
					CHANNELS 3 Xrotation Yrotation Zrotation
					JOINT Neck
					{
						OFFSET 0.000000 -0.030788 0.215517
						CHANNELS 3 Xrotation Yrotation Zrotation
						JOINT Head
						{
							OFFSET 0.000000 -0.019603 0.111175
							CHANNELS 3 Xrotation Yrotation Zrotation
							End Site
							{
								OFFSET 0.000000 0.000000 0.000000
							}
						}
					}
					JOINT RightShoulder
					{
						OFFSET -0.026795 -0.044658 0.144692
						CHANNELS 3 Xrotation Yrotation Zrotation
						JOINT RightArm
						{
							OFFSET -0.133081 0.000000 0.000000
							CHANNELS 3 Xrotation Yrotation Zrotation
							JOINT RightForeArm
							{
								OFFSET -0.269168 0.000000 0.000000
								CHANNELS 3 Xrotation Yrotation Zrotation
								JOINT RightHand
								{
									OFFSET -0.218749 0.000000 0.000000
									CHANNELS 3 Xrotation Yrotation Zrotation
									JOINT RightHandEnd
									{
										OFFSET -0.063788 0.000000 0.000000
										CHANNELS 3 Xrotation Yrotation Zrotation
										End Site
										{
											OFFSET 0.000000 0.000000 0.000000
										}
									}
									JOINT RightHandThumb1
									{
										OFFSET -0.025515 -0.042525 -0.017010
										CHANNELS 3 Xrotation Yrotation Zrotation
										End Site
										{
											OFFSET 0.000000 0.000000 0.000000
										}
									}
								}
							}
						}
					}
					JOINT LeftShoulder
					{
						OFFSET 0.026795 -0.044658 0.144692
						CHANNELS 3 Xrotation Yrotation Zrotation
						JOINT LeftArm
						{
							OFFSET 0.133081 0.000000 0.000000
							CHANNELS 3 Xrotation Yrotation Zrotation
							JOINT LeftForeArm
							{
								OFFSET 0.269168 0.000000 0.000000
								CHANNELS 3 Xrotation Yrotation Zrotation
								JOINT LeftHand
								{
									OFFSET 0.218749 0.000000 0.000000
									CHANNELS 3 Xrotation Yrotation Zrotation
									JOINT LeftHandEnd
									{
										OFFSET 0.063788 0.000000 0.000000
										CHANNELS 3 Xrotation Yrotation Zrotation
										End Site
										{
											OFFSET 0.000000 0.000000 0.000000
										}
									}
									JOINT LeftHandThumb1
									{
										OFFSET 0.025515 -0.042525 -0.017010
										CHANNELS 3 Xrotation Yrotation Zrotation
										End Site
										{
											OFFSET 0.000000 0.000000 0.000000
										}
									}
								}
							}
						}
					}
				}
			}
		}
	}
	JOINT RightUpLeg
	{
		OFFSET -0.079492 0.000000 -0.023222
		CHANNELS 3 Xrotation Yrotation Zrotation
		JOINT RightLeg
		{
			OFFSET 0.000000 0.000000 -0.393933
			CHANNELS 3 Xrotation Yrotation Zrotation
			JOINT RightFoot
			{
				OFFSET 0.000000 0.000000 -0.344864
				CHANNELS 3 Xrotation Yrotation Zrotation
				JOINT RightToeBase
				{
					OFFSET 0.000000 -0.129455 -0.047118
					CHANNELS 3 Xrotation Yrotation Zrotation
					End Site
					{
						OFFSET 0.000000 0.000000 0.000000
					}
				}
			}
		}
	}
	JOINT LeftUpLeg
	{
		OFFSET 0.079492 0.000000 -0.023222
		CHANNELS 3 Xrotation Yrotation Zrotation
		JOINT LeftLeg
		{
			OFFSET 0.000000 0.000000 -0.393933
			CHANNELS 3 Xrotation Yrotation Zrotation
			JOINT LeftFoot
			{
				OFFSET 0.000000 0.000000 -0.344864
				CHANNELS 3 Xrotation Yrotation Zrotation
				JOINT LeftToeBase
				{
					OFFSET 0.000000 -0.129455 -0.047118
					CHANNELS 3 Xrotation Yrotation Zrotation
					End Site
					{
						OFFSET 0.000000 0.000000 0.000000
					}
				}
			}
		}
	}
}
MOTION
Frames: 13
Frame Time: 0.033333
0.583250 -0.635249 0.835335 0.060200 -0.694200 -89.517900 0.198200 0.160500 0.456500 0.126000 -0.701300 -0.052700 -1.955700 -0.086600 -0.883700 0.074900 -0.017800 -0.181200 6.878200 0.242900 -1.230500 -6.126700 -1.315300 -1.350200 -1.864200 4.736800 -1.213700 2.174500 -2.457500 16.840700 0.000000 0.000000 -4.592200 4.674000 7.637200 -13.993300 0.000000 0.000000 0.000000 0.000000 0.000000 0.000000 -2.929200 -7.624800 -0.547300 7.778600 12.114600 2.816400 0.000000 0.000000 -11.806400 0.950400 -1.514800 0.368600 0.000000 0.000000 0.000000 0.000000 0.000000 0.000000 7.425800 0.122600 -3.212800 -6.099300 0.000000 0.000000 -3.554700 -1.867900 -12.360200 1.301300 0.000000 0.000000 5.426100 -0.301900 18.296800 -0.916900 0.000000 0.000000 -2.276800 2.698300 -1.138500 2.244600 0.000000 0.000000 
0.583519 -0.635317 0.835370 0.026900 -0.697800 -89.456400 0.194200 0.156500 0.464000 0.122500 -0.703200 -0.051700 -1.931400 -0.063000 -0.882600 0.080900 -0.011800 -0.181500 6.900300 0.161900 -1.244100 -6.154300 -1.333800 -1.325600 -1.834600 4.801500 -1.244500 2.173400 -2.467300 16.902300 0.000000 0.000000 -4.597700 4.610500 7.642500 -13.919100 0.000000 0.000000 0.000000 0.000000 0.000000 0.000000 -2.932400 -7.689400 -0.546800 7.738700 12.109700 2.902500 0.000000 0.000000 -11.848000 0.921200 -1.544800 0.492600 0.000000 0.000000 0.000000 0.000000 0.000000 0.000000 7.426700 0.157800 -3.204800 -6.131000 0.000000 0.000000 -3.540400 -1.859900 -12.414800 1.294500 0.000000 0.000000 5.259900 -0.310200 17.983000 -0.616600 0.000000 0.000000 -2.415500 2.611600 -0.921900 2.240300 0.000000 0.000000 
0.583895 -0.635391 0.835426 -0.003700 -0.691200 -89.377000 0.182200 0.150700 0.474700 0.109200 -0.715300 -0.049300 -1.874400 -0.043400 -0.872700 0.094100 -0.001700 -0.179500 6.941300 0.059000 -1.255900 -6.184300 -1.384500 -1.290400 -1.809200 4.918000 -1.261200 2.138400 -2.520900 16.970900 0.000000 0.000000 -4.588700 4.553400 7.716800 -13.918200 0.000000 0.000000 0.000000 0.000000 0.000000 0.000000 -2.906500 -7.792700 -0.541800 7.605300 12.125100 3.031400 0.000000 0.000000 -11.906500 0.912900 -1.590500 0.557700 0.000000 0.000000 0.000000 0.000000 0.000000 0.000000 7.415300 0.189000 -3.178500 -6.127600 0.000000 0.000000 -3.530300 -1.826900 -12.489300 1.273600 0.000000 0.000000 5.058000 -0.332400 17.559300 -0.238500 0.000000 0.000000 -2.582400 2.506600 -0.617200 2.230500 0.000000 0.000000 
0.584187 -0.635429 0.835477 -0.005200 -0.652200 -89.341300 0.174700 0.127000 0.481600 0.097100 -0.733600 -0.049600 -1.804800 -0.039900 -0.830400 0.110100 0.003400 -0.171600 6.998600 0.011600 -1.251400 -6.195200 -1.463200 -1.286300 -1.800300 5.052400 -1.238500 2.085200 -2.603200 17.016200 0.000000 0.000000 -4.561800 4.527900 7.790000 -14.016400 0.000000 0.000000 0.000000 0.000000 0.000000 0.000000 -2.871800 -7.902400 -0.529000 7.425800 12.198400 3.132800 0.000000 0.000000 -11.968400 0.885900 -1.651500 0.542600 0.000000 0.000000 0.000000 0.000000 0.000000 0.000000 7.402500 0.190000 -3.171000 -6.055300 0.000000 0.000000 -3.537500 -1.787400 -12.506900 1.247800 0.000000 0.000000 4.975300 -0.359100 17.285300 -0.027400 0.000000 0.000000 -2.669800 2.446200 -0.396300 2.223900 0.000000 0.000000 
0.584317 -0.635467 0.835508 0.013600 -0.580600 -89.362000 0.173600 0.083700 0.480600 0.088300 -0.757600 -0.051600 -1.733400 -0.042600 -0.756000 0.125800 0.001100 -0.161800 7.062100 0.035500 -1.234700 -6.174100 -1.520400 -1.332200 -1.794200 5.165500 -1.197700 2.057800 -2.659100 17.071500 0.000000 0.000000 -4.545800 4.534500 7.802300 -14.064900 0.000000 0.000000 0.000000 0.000000 0.000000 0.000000 -2.860500 -7.979400 -0.500200 7.267700 12.311500 3.168000 0.000000 0.000000 -12.031600 0.834000 -1.729100 0.529400 0.000000 0.000000 0.000000 0.000000 0.000000 0.000000 7.407600 0.172100 -3.235200 -5.942900 0.000000 0.000000 -3.563300 -1.773600 -12.420200 1.213700 0.000000 0.000000 5.045400 -0.370900 17.230500 -0.036700 0.000000 0.000000 -2.666300 2.422900 -0.320300 2.234500 0.000000 0.000000 
0.584332 -0.635571 0.835510 0.025600 -0.493000 -89.382900 0.171000 0.037000 0.474900 0.078500 -0.776000 -0.053800 -1.663700 -0.044400 -0.699400 0.145400 -0.003900 -0.154500 7.125700 0.070300 -1.225800 -6.115600 -1.511500 -1.386400 -1.783500 5.238100 -1.163900 2.076900 -2.661100 17.176800 0.000000 0.000000 -4.559300 4.580900 7.844200 -13.961500 0.000000 0.000000 0.000000 0.000000 0.000000 0.000000 -2.869000 -8.002300 -0.450000 7.156300 12.400800 3.165100 0.000000 0.000000 -12.118100 0.800300 -1.810700 0.576000 0.000000 0.000000 0.000000 0.000000 0.000000 0.000000 7.450500 0.163400 -3.343100 -5.856300 0.000000 0.000000 -3.593700 -1.778100 -12.302500 1.170700 0.000000 0.000000 5.177200 -0.360300 17.226000 -0.124300 0.000000 0.000000 -2.637900 2.395100 -0.299000 2.251300 0.000000 0.000000 
0.584322 -0.635734 0.835497 0.022000 -0.413600 -89.344800 0.160400 0.011900 0.470600 0.060500 -0.786500 -0.056100 -1.600000 -0.044700 -0.705500 0.169900 -0.005400 -0.154400 7.194500 0.058000 -1.239400 -6.030700 -1.461700 -1.402100 -1.780500 5.257200 -1.140200 2.113700 -2.633300 17.315900 0.000000 0.000000 -4.579400 4.641500 8.017600 -13.821100 0.000000 0.000000 0.000000 0.000000 0.000000 0.000000 -2.875600 -7.987600 -0.398100 7.079000 12.444300 3.167400 0.000000 0.000000 -12.249500 0.811200 -1.881800 0.640500 0.000000 0.000000 0.000000 0.000000 0.000000 0.000000 7.524100 0.170900 -3.388600 -5.830400 0.000000 0.000000 -3.608800 -1.760100 -12.297600 1.143800 0.000000 0.000000 5.276300 -0.342500 17.128600 -0.168600 0.000000 0.000000 -2.624600 2.363600 -0.252300 2.251300 0.000000 0.000000 
0.584357 -0.635897 0.835497 0.009300 -0.357900 -89.237300 0.139900 0.013000 0.468900 0.041700 -0.788300 -0.059600 -1.552800 -0.040700 -0.757200 0.191700 -0.002000 -0.164600 7.272600 -0.001500 -1.277100 -5.949500 -1.443500 -1.394200 -1.788900 5.232500 -1.135500 2.128300 -2.637200 17.448100 0.000000 0.000000 -4.587900 4.671200 8.256500 -13.770500 0.000000 0.000000 0.000000 0.000000 0.000000 0.000000 -2.883900 -7.980800 -0.386100 7.011100 12.492500 3.180900 0.000000 0.000000 -12.402400 0.847700 -1.947400 0.654400 0.000000 0.000000 0.000000 0.000000 0.000000 0.000000 7.601900 0.185800 -3.325600 -5.854900 0.000000 0.000000 -3.598100 -1.712500 -12.459100 1.143700 0.000000 0.000000 5.312100 -0.331100 16.962200 -0.153900 0.000000 0.000000 -2.620000 2.351300 -0.200500 2.234800 0.000000 0.000000 
0.584492 -0.636029 0.835520 -0.009700 -0.317800 -89.094100 0.123500 0.022300 0.466900 0.029900 -0.782700 -0.060500 -1.517000 -0.021900 -0.801700 0.203500 0.002600 -0.178300 7.342300 -0.070600 -1.328700 -5.903700 -1.486900 -1.413300 -1.789500 5.213500 -1.174100 2.122000 -2.725500 17.558400 0.000000 0.000000 -4.596100 4.684200 8.436100 -13.757000 0.000000 0.000000 0.000000 0.000000 0.000000 0.000000 -2.904800 -8.006600 -0.433700 6.929000 12.586100 3.179000 0.000000 0.000000 -12.516000 0.875300 -2.025000 0.613100 0.000000 0.000000 0.000000 0.000000 0.000000 0.000000 7.666600 0.204400 -3.249700 -5.893100 0.000000 0.000000 -3.574900 -1.677200 -12.670100 1.138600 0.000000 0.000000 5.301700 -0.322100 16.805700 -0.098100 0.000000 0.000000 -2.622100 2.341900 -0.183600 2.227500 0.000000 0.000000 
0.584756 -0.636161 0.835546 -0.028800 -0.285800 -88.962800 0.117400 0.021500 0.465200 0.025100 -0.773800 -0.059000 -1.478400 0.008200 -0.810500 0.209600 0.006800 -0.190300 7.373100 -0.118100 -1.370800 -5.902500 -1.545400 -1.467300 -1.780100 5.242600 -1.232700 2.127200 -2.896300 17.631600 0.000000 0.000000 -4.604600 4.739300 8.581700 -13.691000 0.000000 0.000000 0.000000 0.000000 0.000000 0.000000 -2.924800 -8.044400 -0.503700 6.842700 12.696600 3.145200 0.000000 0.000000 -12.556400 0.878400 -2.103800 0.565500 0.000000 0.000000 0.000000 0.000000 0.000000 0.000000 7.699800 0.222200 -3.268000 -5.905800 0.000000 0.000000 -3.561300 -1.678400 -12.781400 1.106900 0.000000 0.000000 5.261200 -0.313300 16.685200 -0.012700 0.000000 0.000000 -2.640200 2.302400 -0.191200 2.238400 0.000000 0.000000 
0.585119 -0.636321 0.835551 -0.039400 -0.252600 -88.881800 0.124200 0.019000 0.465500 0.022900 -0.769700 -0.057400 -1.428500 0.026300 -0.800500 0.217000 0.008000 -0.192700 7.356800 -0.126100 -1.386100 -5.923000 -1.567700 -1.516300 -1.770000 5.311100 -1.259100 2.139500 -3.090000 17.663200 0.000000 0.000000 -4.600900 4.830900 8.771600 -13.627600 0.000000 0.000000 0.000000 0.000000 0.000000 0.000000 -2.920600 -8.072000 -0.544400 6.801800 12.789000 3.091000 0.000000 0.000000 -12.551100 0.869900 -2.137700 0.553100 0.000000 0.000000 0.000000 0.000000 0.000000 0.000000 7.706700 0.234500 -3.354200 -5.887300 0.000000 0.000000 -3.557900 -1.688600 -12.776900 1.085700 0.000000 0.000000 5.227700 -0.305200 16.599400 0.055400 0.000000 0.000000 -2.653600 2.250700 -0.190900 2.245900 0.000000 0.000000 
0.585536 -0.636499 0.835563 -0.035400 -0.225900 -88.860900 0.134100 0.024700 0.467600 0.020400 -0.771700 -0.057300 -1.379000 0.020100 -0.789900 0.228300 0.006900 -0.186400 7.318500 -0.099500 -1.379200 -5.930500 -1.553700 -1.537500 -1.757500 5.367000 -1.242200 2.123100 -3.235900 17.683800 0.000000 0.000000 -4.602800 4.881100 8.960300 -13.638200 0.000000 0.000000 0.000000 0.000000 0.000000 0.000000 -2.901100 -8.104600 -0.545800 6.827700 12.875300 3.049900 0.000000 0.000000 -12.552100 0.881300 -2.106800 0.575100 0.000000 0.000000 0.000000 0.000000 0.000000 0.000000 7.691800 0.238700 -3.400600 -5.860500 0.000000 0.000000 -3.547100 -1.685400 -12.752100 1.112000 0.000000 0.000000 5.213900 -0.300700 16.564400 0.070000 0.000000 0.000000 -2.638000 2.224500 -0.184500 2.236400 0.000000 0.000000 
0.585970 -0.636694 0.835614 -0.026200 -0.206300 -88.877600 0.146100 0.032300 0.470500 0.017500 -0.776600 -0.057000 -1.339900 0.012900 -0.773300 0.237000 0.005600 -0.179900 7.288000 -0.065800 -1.368100 -5.907900 -1.533000 -1.549000 -1.738500 5.398600 -1.212200 2.086900 -3.332900 17.707900 0.000000 0.000000 -4.620000 4.884800 9.068300 -13.681200 0.000000 0.000000 0.000000 0.000000 0.000000 0.000000 -2.889100 -8.166900 -0.532600 6.870200 12.970200 3.040000 0.000000 0.000000 -12.567900 0.920600 -2.066500 0.591300 0.000000 0.000000 0.000000 0.000000 0.000000 0.000000 7.669600 0.245200 -3.383400 -5.846100 0.000000 0.000000 -3.524300 -1.690100 -12.755000 1.159300 0.000000 0.000000 5.210800 -0.292900 16.580300 0.051600 0.000000 0.000000 -2.604300 2.217100 -0.189100 2.227200 0.000000 0.000000 
